# xmcd
#
# Track frame offsets:
#	150
#	12564
#	26956
#	36995
#	56552
#	74489
#	93345
#	106062
#	119018
#	134756
#	148344
#	167521
#	181380
#	199286
#
# Disc length: 2901 seconds
# Revision: 0
# Processed by: cddbd v1.5.2PL0 Copyright (c) Steve Scherf et al.
# Submitted via: dBpowerAMP V12.0
#
DISCID=db0b530e
DTITLE=Possum Jenkins - Carolinacana
DYEAR=2012
DGENRE=Country
TTITLE0=Copper Coin
TTITLE1=Been There Before
TTITLE2=All Is Not Lost
TTITLE3=Magdeline
TTITLE4=Better Light
TTITLE5=A.M.
TTITLE6=Know the Way
TTITLE7=I Got Lonesome
TTITLE8=Swinging Door
TTITLE9=A Toast
TTITLE10=Back to You
TTITLE11=Cheatin Song
TTITLE12=Mile Past Broke
TTITLE13=Steel Heart
EXTD=
EXTT0=
EXTT1=
EXTT2=
EXTT3=
EXTT4=
EXTT5=
EXTT6=
EXTT7=
EXTT8=
EXTT9=
EXTT10=
EXTT11=
EXTT12=
EXTT13=
PLAYORDER=
